<?xml version="1.0" encoding="utf-8"?>
<!-- Generator: Adobe Illustrator 17.1.0, SVG Export Plug-In . SVG Version: 6.00 Build 0)  -->
<!DOCTYPE svg PUBLIC "-//W3C//DTD SVG 1.1//EN" "http://www.w3.org/Graphics/SVG/1.1/DTD/svg11.dtd">
<svg version="1.1" xmlns="http://www.w3.org/2000/svg" xmlns:xlink="http://www.w3.org/1999/xlink" x="0px" y="0px"
	 viewBox="0 0 401 401" enable-background="new 0 0 401 401" xml:space="preserve">
<g id="button">
	<path fill="#009161" stroke="#007850" stroke-miterlimit="10" d="M400.5,360.5c0,22.1-17.9,40-40,40h-320c-22.1,0-40-17.9-40-40
		v-320c0-22.1,17.9-40,40-40h320c22.1,0,40,17.9,40,40V360.5z"/>
</g>
<g id="fa-info-circle">
	<g display="inline">
		<path fill="#FFFFFF" d="M249.7,289v-29.5c0-1.7-0.6-3.1-1.7-4.2s-2.5-1.7-4.2-1.7h-17.7v-94.5c0-1.7-0.6-3.1-1.7-4.2
			s-2.5-1.7-4.2-1.7h-59c-1.7,0-3.1,0.6-4.2,1.7s-1.7,2.5-1.7,4.2v29.5c0,1.7,0.6,3.1,1.7,4.2s2.5,1.7,4.2,1.7h17.7v59h-17.7
			c-1.7,0-3.1,0.6-4.2,1.7s-1.7,2.5-1.7,4.2V289c0,1.7,0.6,3.1,1.7,4.2s2.5,1.7,4.2,1.7h82.6c1.7,0,3.1-0.6,4.2-1.7
			S249.7,290.8,249.7,289z M226.1,123.8V94.2c0-1.7-0.6-3.1-1.7-4.2s-2.5-1.7-4.2-1.7h-35.4c-1.7,0-3.1,0.6-4.2,1.7
			s-1.7,2.5-1.7,4.2v29.5c0,1.7,0.6,3.1,1.7,4.2s2.5,1.7,4.2,1.7h35.4c1.7,0,3.1-0.6,4.2-1.7S226.1,125.5,226.1,123.8z M344.2,200.5
			c0,25.7-6.3,49.4-19,71.1s-29.9,38.9-51.6,51.6s-45.4,19-71.1,19s-49.4-6.3-71.1-19s-38.9-29.9-51.6-51.6s-19-45.4-19-71.1
			s6.3-49.4,19-71.1s29.9-38.9,51.6-51.6s45.4-19,71.1-19s49.4,6.3,71.1,19s38.9,29.9,51.6,51.6S344.2,174.8,344.2,200.5z"/>
	</g>
</g>
</svg>
