<?xml version="1.0" encoding="utf-8"?>
<!-- Generator: Adobe Illustrator 17.1.0, SVG Export Plug-In . SVG Version: 6.00 Build 0)  -->
<!DOCTYPE svg PUBLIC "-//W3C//DTD SVG 1.1//EN" "http://www.w3.org/Graphics/SVG/1.1/DTD/svg11.dtd">
<svg version="1.1" xmlns="http://www.w3.org/2000/svg" xmlns:xlink="http://www.w3.org/1999/xlink" x="0px" y="0px"
	 viewBox="0 0 401 401" enable-background="new 0 0 401 401" xml:space="preserve">
<g id="button">
	<path fill="#009161" stroke="#007850" stroke-miterlimit="10" d="M400.5,360.5c0,22.1-17.9,40-40,40h-320c-22.1,0-40-17.9-40-40
		v-320c0-22.1,17.9-40,40-40h320c22.1,0,40,17.9,40,40V360.5z"/>
</g>
<g id="fa-envelope">
	<g display="inline">
		<path fill="#FFFFFF" d="M353.2,158.7v131.8c0,7.3-2.6,13.6-7.8,18.8c-5.2,5.2-11.5,7.8-18.8,7.8H82.4c-7.3,0-13.6-2.6-18.8-7.8
			c-5.2-5.2-7.8-11.5-7.8-18.8V158.7c4.9,5.4,10.5,10.2,16.8,14.4c40.1,27.2,67.5,46.3,82.5,57.3c6.3,4.6,11.4,8.3,15.4,10.9
			c3.9,2.6,9.2,5.3,15.7,8c6.5,2.7,12.6,4.1,18.3,4.1h0.3c5.6,0,11.7-1.4,18.3-4.1c6.5-2.7,11.8-5.4,15.7-8c3.9-2.6,9-6.2,15.4-10.9
			c18.8-13.6,46.4-32.7,82.6-57.3C342.9,168.8,348.5,164,353.2,158.7z M353.2,109.9c0,8.7-2.7,17.1-8.1,25.1
			c-5.4,8-12.2,14.8-20.2,20.4c-41.6,28.9-67.5,46.9-77.7,53.9c-1.1,0.8-3.5,2.5-7.1,5.1c-3.6,2.6-6.6,4.7-9,6.3s-5.3,3.4-8.6,5.4
			c-3.4,2-6.6,3.5-9.5,4.5s-5.8,1.5-8.3,1.5h-0.3c-2.5,0-5.3-0.5-8.3-1.5s-6.2-2.5-9.5-4.5c-3.4-2-6.3-3.8-8.6-5.4
			c-2.4-1.6-5.4-3.7-9-6.3c-3.6-2.6-5.9-4.3-7.1-5.1c-10.1-7.1-24.6-17.2-43.5-30.3s-30.3-21-34-23.6c-6.9-4.6-13.3-11-19.4-19.2
			s-9.1-15.7-9.1-22.7c0-8.6,2.3-15.8,6.9-21.6c4.6-5.8,11.1-8.6,19.7-8.6h244.3c7.2,0,13.4,2.6,18.7,7.8
			C350.6,96.4,353.2,102.6,353.2,109.9z"/>
	</g>
</g>
</svg>
