<?xml version="1.0" encoding="utf-8"?>
<!-- Generator: Adobe Illustrator 17.1.0, SVG Export Plug-In . SVG Version: 6.00 Build 0)  -->
<!DOCTYPE svg PUBLIC "-//W3C//DTD SVG 1.1//EN" "http://www.w3.org/Graphics/SVG/1.1/DTD/svg11.dtd">
<svg version="1.1" xmlns="http://www.w3.org/2000/svg" xmlns:xlink="http://www.w3.org/1999/xlink" x="0px" y="0px"
	 viewBox="0 0 401 401" enable-background="new 0 0 401 401" xml:space="preserve">
  <g id="button">
    <path fill="#009161" stroke="#007850" stroke-miterlimit="10" d="M400.5,360.5c0,22.1-17.9,40-40,40h-320c-22.1,0-40-17.9-40-40
      v-320c0-22.1,17.9-40,40-40h320c22.1,0,40,17.9,40,40V360.5z"/>
  </g>
  <g id="fa-calendar">
    <g display="inline">
      <path fill="#FFFFFF" d="M290.92,331.08h44.83V286.25H290.92Zm54.79,0h49.81V286.25H345.71Zm-54.79-54.79h44.83V226.48H290.92Zm54.79,0h49.81V226.48H345.71Zm-54.79-59.77h44.83V171.69H290.92ZM405.48,331.08h49.81V286.25H405.48ZM345.71,216.52h49.81V171.69H345.71ZM465.26,331.08h44.82V286.25H465.26Zm-59.78-54.79h49.81V226.48H405.48ZM350.69,141.8V97a5,5,0,0,0-5-5h-10a5.05,5.05,0,0,0-5,5V141.8a5.05,5.05,0,0,0,5,5h10a5,5,0,0,0,5-5ZM465.26,276.29h44.82V226.48H465.26Zm-59.78-59.77h49.81V171.69H405.48Zm59.78,0h44.82V171.69H465.26Zm5-74.72V97a5.05,5.05,0,0,0-5-5h-10a5.05,5.05,0,0,0-5,5V141.8a5.05,5.05,0,0,0,5,5h10a5.05,5.05,0,0,0,5-5Zm59.77-10V331.08A20.2,20.2,0,0,1,510.08,351H290.92A20.18,20.18,0,0,1,271,331.08V131.84a20.18,20.18,0,0,1,19.92-19.92h19.93V97a25,25,0,0,1,24.9-24.9h10A25,25,0,0,1,370.62,97v15h59.77V97a25,25,0,0,1,24.9-24.9h10A25,25,0,0,1,490.16,97v15h19.92A20.2,20.2,0,0,1,530,131.84Z" transform="translate(-198 -17)" />
    </g>
  </g>
</svg>
