<?xml version="1.0" encoding="utf-8"?>
<!-- Generator: Adobe Illustrator 17.1.0, SVG Export Plug-In . SVG Version: 6.00 Build 0)  -->
<!DOCTYPE svg PUBLIC "-//W3C//DTD SVG 1.1//EN" "http://www.w3.org/Graphics/SVG/1.1/DTD/svg11.dtd">
<svg version="1.1" xmlns="http://www.w3.org/2000/svg" xmlns:xlink="http://www.w3.org/1999/xlink" x="0px" y="0px"
	 viewBox="0 0 401 401" enable-background="new 0 0 401 401" xml:space="preserve">
<g id="button">
	<path fill="#009161" stroke="#007850" stroke-miterlimit="10" d="M400.5,360.5c0,22.1-17.9,40-40,40h-320c-22.1,0-40-17.9-40-40
		v-320c0-22.1,17.9-40,40-40h320c22.1,0,40,17.9,40,40V360.5z"/>
</g>
<g id="fa-mobile-phone">
	<g display="inline">
		<path fill="#FFFFFF" d="M221.5,334.7c0-5.8-2.1-10.7-6.2-14.8c-4.1-4.1-9-6.2-14.8-6.2s-10.7,2.1-14.8,6.2
			c-4.1,4.1-6.2,9-6.2,14.8c0,5.8,2.1,10.7,6.2,14.8c4.1,4.1,9,6.2,14.8,6.2s10.7-2.1,14.8-6.2C219.4,345.4,221.5,340.5,221.5,334.7
			z M276,292.8V108.2c0-2.3-0.8-4.2-2.5-5.9s-3.6-2.5-5.9-2.5H133.4c-2.3,0-4.2,0.8-5.9,2.5s-2.5,3.6-2.5,5.9v184.5
			c0,2.3,0.8,4.2,2.5,5.9c1.7,1.7,3.6,2.5,5.9,2.5h134.2c2.3,0,4.2-0.8,5.9-2.5C275.2,297,276,295,276,292.8z M225.7,70.5
			c0-2.8-1.4-4.2-4.2-4.2h-41.9c-2.8,0-4.2,1.4-4.2,4.2c0,2.8,1.4,4.2,4.2,4.2h41.9C224.3,74.7,225.7,73.3,225.7,70.5z M301.2,66.3
			v268.4c0,9.1-3.3,17-10,23.6s-14.5,10-23.6,10H133.4c-9.1,0-17-3.3-23.6-10s-10-14.5-10-23.6V66.3c0-9.1,3.3-17,10-23.6
			s14.5-10,23.6-10h134.2c9.1,0,17,3.3,23.6,10S301.2,57.2,301.2,66.3z"/>
	</g>
</g>
</svg>
