<?xml version="1.0" encoding="utf-8"?>
<!-- Generator: Adobe Illustrator 17.1.0, SVG Export Plug-In . SVG Version: 6.00 Build 0)  -->
<!DOCTYPE svg PUBLIC "-//W3C//DTD SVG 1.1//EN" "http://www.w3.org/Graphics/SVG/1.1/DTD/svg11.dtd">
<svg version="1.1" xmlns="http://www.w3.org/2000/svg" xmlns:xlink="http://www.w3.org/1999/xlink" x="0px" y="0px"
	 viewBox="0 0 401 401" enable-background="new 0 0 401 401" xml:space="preserve">
<g id="button">
	<path fill="#009161" stroke="#007850" stroke-miterlimit="10" d="M400.5,360.5c0,22.1-17.9,40-40,40h-320c-22.1,0-40-17.9-40-40
		v-320c0-22.1,17.9-40,40-40h320c22.1,0,40,17.9,40,40V360.5z"/>
</g>
<g id="fa-comments">
	<g display="inline">
		<path fill="#FFFFFF" d="M293.8,163.1c0,16.5-5.6,31.8-16.8,45.8c-11.2,14-26.4,25.1-45.8,33.3c-19.3,8.1-40.3,12.2-63.1,12.2
			c-10.2,0-20.7-1-31.4-2.9c-14.7,10.5-31.3,18.1-49.6,22.8c-4.3,1.1-9.4,2-15.3,2.9h-0.5c-1.3,0-2.5-0.5-3.7-1.4s-1.8-2.2-2.1-3.7
			c-0.1-0.4-0.2-0.7-0.2-1.2s0-0.8,0.1-1.2c0.1-0.4,0.2-0.7,0.4-1.1l0.4-0.9l0.6-1l0.7-0.9l0.8-0.9l0.7-0.8c0.6-0.7,2-2.2,4.1-4.5
			c2.1-2.3,3.7-4,4.6-5.3c1-1.2,2.3-3,4-5.2s3.2-4.5,4.5-6.9s2.5-5,3.7-7.8c-14.7-8.6-26.3-19.1-34.8-31.6s-12.7-25.8-12.7-40
			c0-16.5,5.6-31.8,16.8-45.8c11.2-14,26.4-25.1,45.8-33.3s40.3-12.2,63.1-12.2S212,75.8,231.3,84s34.6,19.2,45.8,33.3
			C288.3,131.3,293.8,146.5,293.8,163.1z M362.3,208.7c0,14.3-4.2,27.6-12.7,40.1s-20,22.9-34.8,31.5c1.2,2.9,2.4,5.5,3.7,7.8
			c1.2,2.4,2.7,4.7,4.5,6.9s3.1,3.9,4,5.2c1,1.2,2.5,3,4.6,5.3c2.1,2.3,3.5,3.7,4.1,4.5c0.1,0.1,0.4,0.4,0.7,0.8
			c0.4,0.4,0.6,0.7,0.8,0.9s0.4,0.5,0.7,0.9c0.3,0.4,0.5,0.7,0.6,1l0.4,0.9l0.4,1.1l0.1,1.2l-0.2,1.2c-0.4,1.7-1.1,3-2.3,3.9
			c-1.2,1-2.5,1.4-3.9,1.2c-5.9-0.8-11.1-1.8-15.3-2.9c-18.3-4.8-34.8-12.4-49.6-22.8c-10.7,1.9-21.2,2.9-31.4,2.9
			c-32.2,0-60.3-7.8-84.2-23.5c6.9,0.5,12.1,0.7,15.7,0.7c19.1,0,37.5-2.7,55.1-8s33.3-13,47.1-23c14.9-10.9,26.3-23.5,34.3-37.8
			c8-14.3,12-29.4,12-45.3c0-9.2-1.4-18.2-4.1-27.1c15.3,8.4,27.5,19,36.4,31.8C357.9,180.4,362.3,194.1,362.3,208.7z"/>
	</g>
</g>
</svg>
