<?xml version="1.0" encoding="utf-8"?>
<!-- Generator: Adobe Illustrator 17.1.0, SVG Export Plug-In . SVG Version: 6.00 Build 0)  -->
<!DOCTYPE svg PUBLIC "-//W3C//DTD SVG 1.1//EN" "http://www.w3.org/Graphics/SVG/1.1/DTD/svg11.dtd">
<svg version="1.1" xmlns="http://www.w3.org/2000/svg" xmlns:xlink="http://www.w3.org/1999/xlink" x="0px" y="0px"
	 viewBox="0 0 401 401" enable-background="new 0 0 401 401" xml:space="preserve">
<g id="button">
	<path fill="#009161" stroke="#007850" stroke-miterlimit="10" d="M400.5,360.5c0,22.1-17.9,40-40,40h-320c-22.1,0-40-17.9-40-40
		v-320c0-22.1,17.9-40,40-40h320c22.1,0,40,17.9,40,40V360.5z"/>
</g>
<g id="fa-phone">
	<g display="inline">
		<path fill="#FFFFFF" d="M352.9,286.1c0,3.8-0.7,8.7-2.1,14.8c-1.4,6.1-2.9,10.9-4.4,14.4c-2.9,7-11.5,14.4-25.6,22.2
			c-13.1,7.1-26.1,10.7-39,10.7c-3.8,0-7.5-0.2-11.1-0.7c-3.6-0.5-7.7-1.4-12.1-2.6s-7.7-2.3-9.9-3s-6-2.2-11.6-4.3
			c-5.6-2.1-9-3.4-10.3-3.8c-13.7-4.9-25.9-10.7-36.7-17.4c-17.8-11-36.2-26.1-55.4-45.3c-19.2-19.2-34.3-37.6-45.3-55.4
			c-6.7-10.8-12.5-23-17.4-36.7c-0.4-1.3-1.7-4.7-3.8-10.3c-2.1-5.6-3.5-9.5-4.3-11.6c-0.8-2.2-1.8-5.5-3-9.9
			c-1.3-4.4-2.1-8.4-2.6-12.1c-0.5-3.6-0.7-7.3-0.7-11.1c0-12.9,3.6-25.9,10.7-39c7.8-14.1,15.2-22.6,22.2-25.6
			c3.5-1.5,8.3-3,14.4-4.4c6.1-1.4,11-2.1,14.8-2.1c2,0,3.4,0.2,4.4,0.6c2.5,0.8,6.2,6.2,11.1,15.9c1.5,2.7,3.6,6.4,6.3,11.3
			c2.7,4.9,5.1,9.3,7.3,13.3s4.4,7.7,6.5,11.2c0.4,0.6,1.6,2.3,3.7,5.2s3.5,5.4,4.5,7.4c1,2,1.5,4,1.5,6c0,2.8-2,6.3-6,10.5
			s-8.3,8-13,11.5c-4.7,3.5-9,7.2-13,11.1s-6,7.1-6,9.6c0,1.3,0.3,2.8,1,4.7c0.7,1.9,1.3,3.3,1.8,4.3c0.5,1,1.5,2.7,2.9,5
			s2.3,3.7,2.4,4c10.6,19.2,22.8,35.6,36.5,49.3c13.7,13.7,30.1,25.9,49.3,36.5c0.3,0.1,1.6,0.9,4,2.4s4.1,2.4,5,2.9
			c1,0.5,2.4,1.1,4.3,1.8s3.5,1,4.7,1c2.5,0,5.7-2,9.6-6s7.6-8.3,11.1-13c3.5-4.7,7.3-9,11.5-13s7.7-6,10.5-6c2,0,3.9,0.5,6,1.5
			c2,1,4.5,2.5,7.4,4.5s4.7,3.3,5.2,3.7c3.5,2.1,7.2,4.3,11.2,6.5c4,2.2,8.4,4.7,13.3,7.3c4.9,2.7,8.7,4.8,11.3,6.3
			c9.8,4.9,15.1,8.6,15.9,11.1C352.7,282.6,352.9,284.1,352.9,286.1z"/>
	</g>
</g>
</svg>
