<?xml version="1.0" encoding="utf-8"?>
<!-- Generator: Adobe Illustrator 17.1.0, SVG Export Plug-In . SVG Version: 6.00 Build 0)  -->
<!DOCTYPE svg PUBLIC "-//W3C//DTD SVG 1.1//EN" "http://www.w3.org/Graphics/SVG/1.1/DTD/svg11.dtd">
<svg version="1.1" 
	   id="Layer_1" 
	   xmlns="http://www.w3.org/2000/svg" 
	   xmlns:xlink="http://www.w3.org/1999/xlink" 
	   x="0px" 
	   y="0px"
	   viewBox="0 0 296 51" 
	   enable-background="new 0 0 296 51" 
	   xml:space="preserve">
<g>
	<path fill="#005F3F" d="M1.6,3.4V1.3c5.7,0.3,9.6,0.4,11.7,0.4c1.3,0,5.3-0.1,12.1-0.4v2.1c-4.2,0.7-6.7,1.2-7.4,1.4
		c-0.5,0.2-0.9,0.4-1.1,0.8c-0.4,0.5-0.6,1.5-0.6,3.1c0,1.5-0.1,10.2-0.1,26c0,3.1,0,7.3,0.1,12.5h15.5c2.3,0,3.8-0.1,4.5-0.4
		s1.4-0.9,2.2-1.9c0.8-1,2.2-3.4,4.2-7.2h3l-2.8,7.8c-0.5,1.5-1.1,3.4-1.8,5.7C31.4,51,23,50.8,15.8,50.8c-5.1,0-9.8,0.1-14.2,0.4
		v-2.1C5.2,48.5,7.3,48,8,47.8c0.6-0.2,1.1-0.6,1.3-1c0.2-0.4,0.3-1.7,0.3-3.7l0.2-21.6L9.6,7.7c0-1.2-0.2-1.9-0.5-2.3
		c-0.5-0.5-2.3-1-5.2-1.5C3.4,3.8,2.6,3.7,1.6,3.4z"/>
	<path fill="#005F3F" d="M54.9,30.2h6.4c2.5,0,3.9-0.1,4.4-0.2c0.4-0.1,0.8-0.4,1.1-0.8c0.3-0.4,0.6-1.6,1-3.5
		c0.1-0.2,0.1-0.5,0.2-0.9h1.7c-0.2,2.9-0.3,5.1-0.3,6.7c0,1.6,0.1,3.8,0.3,6.6H68c-0.5-2.5-0.8-4-0.9-4.3c-0.2-0.4-0.5-0.7-0.9-0.9
		c-0.4-0.2-1.7-0.3-3.9-0.3h-7.2l0.1,15.5h11l1,0c1.5,0,2.5-0.1,2.8-0.2c0.7-0.2,1.3-0.6,1.8-1.1c0.5-0.5,1.5-2.1,2.8-4.5
		c0.1-0.2,0.4-0.6,0.6-1.1H77c-0.2,0.6-1.3,3.9-3.3,9.9c-6.4-0.2-12.2-0.3-17.5-0.3c-3.7,0-7.8,0.1-12.2,0.3v-1.6l4.3-0.9
		c0.7-0.2,1.1-0.4,1.3-0.6c0.3-0.3,0.4-1,0.4-2.1v-0.5l0.1-6.2c0-1.2,0-3.5,0-7c0-5.1,0-8.8-0.1-11.2c0-2.4-0.1-3.7-0.3-4
		c-0.1-0.2-0.3-0.4-0.5-0.5c-0.2-0.1-1-0.4-2.4-0.7l-2.8-0.6v-1.6c3.3,0.2,7.3,0.3,11.8,0.3c2.5,0,8.5-0.1,17.9-0.3c0,3,0.2,6,0.6,9
		h-1.8c-0.7-2.4-1.3-4-1.7-4.8c-0.3-0.5-0.7-0.9-1.1-1.1c-0.6-0.2-1.9-0.3-3.8-0.3H55.2L55,25L54.9,30.2z"/>
	<path fill="#005F3F" d="M88.5,3.4V1.3c3.9,0.3,6.9,0.4,8.9,0.4c2.3,0,4.8-0.1,7.5-0.4c1,2.5,1.7,4.3,2.3,5.6
		c0.8,1.7,3.8,8.3,9.2,19.7c2.3,4.9,4.6,9.6,6.9,14.2l15-31.6c0.9-1.9,2-4.6,3.3-8c3.1,0.3,5.5,0.4,7.2,0.4c1.5,0,4.2-0.1,7.8-0.4
		v2.1c-0.7,0.2-1.2,0.3-1.6,0.4c-3.3,0.7-5.1,1.1-5.4,1.4c-0.6,0.5-0.9,1.7-0.9,3.6v0.5l-0.1,11.1c0,14,0.1,22.5,0.2,25.5
		c0,0.6,0.2,1.1,0.5,1.4c0.3,0.3,2.3,0.8,6,1.5c0.3,0,0.8,0.2,1.4,0.3v2.1c-4.2-0.3-7.9-0.4-11.1-0.4c-3.3,0-7.2,0.1-11.6,0.4v-2.1
		c0.9-0.2,1.6-0.4,2.1-0.5c2.9-0.5,4.5-0.9,4.9-1.1c0.4-0.2,0.7-0.5,0.8-0.9c0.2-0.7,0.3-2.6,0.3-5.7V10.2
		c-2.1,4.2-6.9,14.4-14.4,30.5c-2.1,4.4-3.6,7.8-4.6,10.2h-2c-5.2-11.6-11.7-25.2-19.3-40.6l0.5,32.8c0,2.6,0.2,4.1,0.6,4.5
		c0.4,0.4,2.2,0.8,5.3,1.4c0.4,0.1,0.9,0.2,1.6,0.4v2.1c-4.1-0.3-7.3-0.4-9.8-0.4c-2.5,0-5.8,0.1-9.9,0.4v-2.1
		c0.7-0.2,1.2-0.3,1.5-0.4c3.1-0.6,4.8-1.1,5.2-1.6c0.6-0.7,0.9-2.3,0.9-4.8l0.2-7.9c0.1-7.2,0.2-14.2,0.2-21l0-4.3
		c0-1.7-0.1-2.8-0.3-3.2c-0.2-0.4-0.6-0.7-1-0.9c-0.9-0.4-2.9-0.8-6-1.2C90,3.8,89.4,3.6,88.5,3.4z"/>
	<path fill="#005F3F" d="M153.4,32.2c0-5.8,1.9-10.4,5.6-14c3.7-3.5,8.7-5.3,14.9-5.3c6.1,0,10.9,1.6,14.3,4.9
		c3.5,3.3,5.2,7.6,5.2,13.1c0,5.9-2,10.7-6,14.7c-4,3.9-9.1,5.9-15.2,5.9c-3.8,0-7.1-0.8-9.9-2.3c-2.8-1.5-4.9-3.8-6.5-6.8
		C154.2,39.5,153.4,36.1,153.4,32.2z M158.8,30.1c0,4,0.7,7.4,2,10.4c1.4,2.9,3.2,5.2,5.5,6.6c2.3,1.5,4.9,2.2,7.8,2.2
		c2.7,0,5.1-0.6,7.2-1.9c2-1.2,3.6-3.1,4.8-5.6c1.2-2.5,1.8-5.5,1.8-9c0-3.7-0.6-6.9-1.9-9.6c-1.3-2.6-3.1-4.6-5.3-6
		c-2.3-1.3-4.9-2-8-2c-2.8,0-5.2,0.6-7.3,1.8c-2,1.2-3.6,2.9-4.8,5.2C159.4,24.5,158.8,27.1,158.8,30.1z"/>
	<path fill="#005F3F" d="M200.6,51.1v-1.6c0.6-0.1,1.1-0.2,1.4-0.3c2.2-0.4,3.5-0.7,4-1.1c0.3-0.2,0.5-0.7,0.6-1.6
		c0.1-0.9,0.2-3.3,0.2-7.4l0-3.5c-1.5-2.4-3.9-6.1-7.3-11.1l-4.8-7c-0.4-0.4-0.8-0.7-1.3-1c-0.8-0.4-2.1-0.9-3.9-1.3v-1.6
		c2.8,0.2,5.2,0.3,7.4,0.3c2.1,0,4.7-0.1,7.8-0.3v1.6c-2,0.5-3.2,0.9-3.5,1.1c-0.3,0.2-0.5,0.5-0.5,0.7c0,0.2,0.1,0.6,0.4,1.1
		c1.6,2.7,4.6,7.5,9,14.3c2.2-3.5,5.1-8.3,8.7-14.4c0.4-0.6,0.6-1,0.6-1.3c0-0.2-0.1-0.4-0.3-0.6c-0.6-0.4-1.8-0.7-3.7-1v-1.6
		c3.2,0.2,5.6,0.3,7,0.3c1.8,0,3.9-0.1,6.5-0.3v1.6c-2.2,0.4-3.7,0.9-4.6,1.5c-0.9,0.6-2,1.8-3.2,3.6c-2.7,4-5.8,8.9-9.5,14.8
		c0,0.9,0,1.4,0,1.6c0,6.1,0,9.5,0.1,10.1c0.1,0.6,0.3,1.1,0.6,1.4c0.5,0.4,2,0.8,4.4,1.2c0.2,0,0.5,0.1,0.9,0.2v1.6
		c-3.3-0.2-5.9-0.3-7.9-0.3C207.9,50.8,204.9,50.9,200.6,51.1z"/>
	<path fill="#005F3F" d="M222.8,15.3v-1.6c2.2,0.2,4,0.3,5.3,0.3c1,0,2.9-0.1,5.5-0.3l7.5,9.4c0.7,0.8,6,7.2,15.9,19.2
		c0-2.5,0-4.2,0-5.4c0-2.6-0.1-7.4-0.2-14.4c-0.1-3.3-0.2-5-0.3-5.3c-0.1-0.3-0.3-0.5-0.6-0.8c-0.3-0.2-1.5-0.5-3.7-0.9
		c-0.3-0.1-0.7-0.1-1.2-0.3v-1.6c3.1,0.2,5.6,0.3,7.5,0.3c1.8,0,4.3-0.1,7.4-0.3v1.6c-0.5,0.1-0.8,0.2-1.1,0.2
		c-2.4,0.5-3.7,0.8-3.9,1c-0.2,0.1-0.4,0.3-0.5,0.5c-0.2,0.3-0.3,0.8-0.4,1.6c0,0.3-0.1,2.7-0.1,7.2c-0.1,4.5-0.1,8.8-0.1,12.9
		c0,4.9,0.1,9.1,0.3,12.5l-1.7,0.8l-11-13.7l-14.4-17.4l0.1,15.6c0.1,6.8,0.2,10.5,0.3,10.9c0.1,0.3,0.2,0.6,0.5,0.8
		c0.4,0.4,1.7,0.7,3.9,1.1c0.3,0,0.7,0.1,1.2,0.2v1.6c-2.7-0.2-5-0.3-6.8-0.3c-1.5,0-4.2,0.1-8.1,0.3v-1.6c0.6-0.1,1.1-0.2,1.4-0.3
		c2.1-0.4,3.3-0.7,3.7-1c0.2-0.2,0.3-0.4,0.4-0.8c0.2-0.8,0.3-3.9,0.4-9.2c0.1-7.5,0.1-12,0.1-13.3c0-4.4-0.1-6.9-0.2-7.4
		c-0.1-0.4-0.3-0.6-0.7-0.9s-2-0.6-5-1.1C223.9,15.5,223.4,15.4,222.8,15.3z"/>
	<path fill="#005F3F" d="M274.4,30.2h6.4c2.5,0,3.9-0.1,4.4-0.2s0.8-0.4,1.1-0.8c0.3-0.4,0.6-1.6,1-3.5c0.1-0.2,0.1-0.5,0.2-0.9h1.7
		c-0.2,2.9-0.3,5.1-0.3,6.7c0,1.6,0.1,3.8,0.3,6.6h-1.7c-0.5-2.5-0.8-4-0.9-4.3c-0.2-0.4-0.5-0.7-0.9-0.9s-1.7-0.3-3.9-0.3h-7.2
		l0.1,15.5h11l1,0c1.5,0,2.5-0.1,2.8-0.2c0.7-0.2,1.3-0.6,1.8-1.1c0.5-0.5,1.5-2.1,2.8-4.5c0.1-0.2,0.4-0.6,0.6-1.1h1.8
		c-0.2,0.6-1.3,3.9-3.3,9.9c-6.4-0.2-12.2-0.3-17.5-0.3c-3.7,0-7.8,0.1-12.2,0.3v-1.6l4.3-0.9c0.7-0.2,1.1-0.4,1.3-0.6
		c0.3-0.3,0.4-1,0.4-2.1v-0.5l0.1-6.2c0-1.2,0-3.5,0-7c0-5.1,0-8.8-0.1-11.2c0-2.4-0.1-3.7-0.3-4c-0.1-0.2-0.3-0.4-0.5-0.5
		c-0.2-0.1-1-0.4-2.4-0.7l-2.8-0.6v-1.6c3.3,0.2,7.3,0.3,11.8,0.3c2.5,0,8.5-0.1,17.9-0.3c0,3,0.2,6,0.6,9H292
		c-0.7-2.4-1.3-4-1.7-4.8c-0.3-0.5-0.7-0.9-1.1-1.1c-0.6-0.2-1.9-0.3-3.8-0.3h-10.7l-0.2,8.5L274.4,30.2z"/>
</g>
</svg>
