<?xml version="1.0" encoding="utf-8"?>
<!-- Generator: Adobe Illustrator 17.1.0, SVG Export Plug-In . SVG Version: 6.00 Build 0)  -->
<!DOCTYPE svg PUBLIC "-//W3C//DTD SVG 1.1//EN" "http://www.w3.org/Graphics/SVG/1.1/DTD/svg11.dtd">
<svg version="1.1" xmlns="http://www.w3.org/2000/svg" xmlns:xlink="http://www.w3.org/1999/xlink" x="0px" y="0px"
	 viewBox="0 0 401 401" enable-background="new 0 0 401 401" xml:space="preserve">
<g id="button">
	<path fill="#009161" stroke="#007850" stroke-miterlimit="10" d="M400.5,360.5c0,22.1-17.9,40-40,40h-320c-22.1,0-40-17.9-40-40
		v-320c0-22.1,17.9-40,40-40h320c22.1,0,40,17.9,40,40V360.5z"/>
</g>
<g id="fa-comment">
	<g display="inline">
		<path fill="#FFFFFF" d="M357.1,183c0,19.6-6.8,37.7-20.3,54.3s-31.9,29.7-55.1,39.4s-48.6,14.4-76.1,14.4
			c-7.9,0-16.1-0.5-24.5-1.4c-22.3,19.7-48.2,33.3-77.7,40.9c-5.5,1.6-11.9,2.8-19.3,3.7c-1.9,0.2-3.6-0.3-5.2-1.5
			c-1.5-1.2-2.5-2.9-3-4.9v-0.2c-0.3-0.5-0.4-1.1-0.1-2c0.3-0.9,0.4-1.5,0.3-1.7s0.2-0.8,0.8-1.6l1-1.5l1.2-1.4l1.4-1.5
			c0.8-0.9,2.5-2.8,5.2-5.8s4.6-5.1,5.8-6.4c1.2-1.3,2.9-3.5,5.2-6.7c2.3-3.2,4.1-6,5.5-8.6c1.4-2.6,2.9-5.9,4.6-10
			s3.2-8.3,4.4-12.8c-17.7-10-31.6-22.4-41.8-37.2S54.3,199.9,54.3,183c0-14.6,4-28.6,12-42s18.8-24.9,32.3-34.6
			s29.6-17.4,48.3-23.1c18.7-5.7,38.3-8.5,58.8-8.5c27.5,0,52.8,4.8,76.1,14.4s41.6,22.8,55.1,39.4S357.1,163.4,357.1,183z"/>
	</g>
</g>
</svg>
