<?xml version="1.0" encoding="utf-8"?>
<!-- Generator: Adobe Illustrator 17.1.0, SVG Export Plug-In . SVG Version: 6.00 Build 0)  -->
<!DOCTYPE svg PUBLIC "-//W3C//DTD SVG 1.1//EN" "http://www.w3.org/Graphics/SVG/1.1/DTD/svg11.dtd">
<svg version="1.1" xmlns="http://www.w3.org/2000/svg" xmlns:xlink="http://www.w3.org/1999/xlink" x="0px" y="0px"
	 viewBox="0 0 401 401" enable-background="new 0 0 401 401" xml:space="preserve">
<g id="button">
	<path fill="#009161" stroke="#007850" stroke-miterlimit="10" d="M400.5,360.5c0,22.1-17.9,40-40,40h-320c-22.1,0-40-17.9-40-40
		v-320c0-22.1,17.9-40,40-40h320c22.1,0,40,17.9,40,40V360.5z"/>
</g>
<g id="fa-question-circle">
	<g>
		<path fill="#FFFFFF" d="M225.7,288.8v-35.3c0-1.7-0.6-3.1-1.7-4.2c-1.1-1.1-2.5-1.7-4.2-1.7h-35.3c-1.7,0-3.1,0.6-4.2,1.7
			s-1.7,2.5-1.7,4.2v35.3c0,1.7,0.6,3.1,1.7,4.2c1.1,1.1,2.5,1.7,4.2,1.7h35.3c1.7,0,3.1-0.6,4.2-1.7
			C225.2,291.9,225.7,290.5,225.7,288.8z M272.8,165.2c0-10.8-3.4-20.8-10.2-30c-6.8-9.2-15.3-16.3-25.5-21.3
			c-10.2-5-20.6-7.5-31.3-7.5c-29.8,0-52.5,13.1-68.2,39.2c-1.8,2.9-1.3,5.5,1.5,7.7l24.3,18.4c0.9,0.7,2,1.1,3.5,1.1
			c2,0,3.5-0.7,4.6-2.2c6.5-8.3,11.8-14,15.8-16.9c4.2-2.9,9.4-4.4,15.8-4.4c5.9,0,11.1,1.6,15.7,4.8c4.6,3.2,6.9,6.8,6.9,10.9
			c0,4.7-1.2,8.4-3.7,11.2c-2.5,2.8-6.6,5.6-12.5,8.3c-7.7,3.4-14.8,8.7-21.2,15.9s-9.7,14.9-9.7,23.1v6.6c0,1.7,0.6,3.1,1.7,4.2
			s2.5,1.7,4.2,1.7h35.3c1.7,0,3.1-0.6,4.2-1.7c1.1-1.1,1.7-2.5,1.7-4.2c0-2.3,1.3-5.4,4-9.1c2.6-3.7,6-6.8,10-9.1
			c3.9-2.2,6.9-4,9-5.2s4.9-3.4,8.5-6.4c3.6-3,6.3-5.9,8.2-8.8c1.9-2.9,3.6-6.6,5.1-11.1C272.1,175.5,272.8,170.6,272.8,165.2z
			 M343.4,200.5c0,25.6-6.3,49.3-18.9,70.9c-12.6,21.6-29.8,38.8-51.4,51.4c-21.6,12.6-45.3,18.9-70.9,18.9s-49.3-6.3-70.9-18.9
			c-21.6-12.6-38.8-29.8-51.4-51.4S61,226.1,61,200.5s6.3-49.3,18.9-70.9s29.8-38.8,51.4-51.4c21.6-12.6,45.3-18.9,70.9-18.9
			s49.3,6.3,70.9,18.9c21.6,12.6,38.8,29.8,51.4,51.4C337.1,151.2,343.4,174.9,343.4,200.5z"/>
	</g>
</g>
</svg>
