<?xml version="1.0" encoding="utf-8"?>
<!-- Generator: Adobe Illustrator 17.1.0, SVG Export Plug-In . SVG Version: 6.00 Build 0)  -->
<!DOCTYPE svg PUBLIC "-//W3C//DTD SVG 1.1//EN" "http://www.w3.org/Graphics/SVG/1.1/DTD/svg11.dtd">
<svg version="1.1" 
	   id="Layer_1" 
	   xmlns="http://www.w3.org/2000/svg" 
	   xmlns:xlink="http://www.w3.org/1999/xlink" 
	   x="0px" 
	   y="0px"
	   viewBox="0 0 446 69" 
	   enable-background="new 0 0 446 69" 
	   xml:space="preserve">
<g>
	<path fill="#005F3F" d="M2.2,28.1v-1.7c4.6,0.2,9.6,0.3,15,0.3c5.7,0,12.1-0.1,18.9-0.3l0.6,11h-2c-0.8-3.1-1.4-5.1-1.8-5.9
		c-0.3-0.6-0.7-1-1.3-1.3c-0.6-0.3-1.9-0.4-4-0.4H14.9c-0.1,2.6-0.2,7.6-0.3,14.9h8c1.5,0,2.5-0.1,3-0.3c0.5-0.2,0.8-0.5,1.1-1
		c0.3-0.5,0.6-1.7,1-3.5c0.1-0.3,0.2-0.8,0.3-1.5H30c-0.2,4.1-0.3,6.7-0.3,8c0,0.4,0.1,2.9,0.3,7.5h-1.9c-0.1-0.5-0.2-1-0.2-1.2
		c-0.4-2.5-0.9-4-1.4-4.5c-0.5-0.5-1.8-0.7-3.9-0.7h-8c0,2,0,3.3,0,3.9c0,7.8,0.1,12,0.2,12.6c0.1,0.4,0.3,0.7,0.6,0.9
		c0.4,0.3,2.7,0.7,6.7,1.3V68c-4.4-0.2-7.6-0.3-9.5-0.3L2.3,68v-1.7C3,66.1,3.6,66,4,65.9c2.4-0.4,3.7-0.7,4.2-1.2
		c0.4-0.4,0.7-1.3,0.7-2.7L9,53.7c0-1.3,0-3.8,0-7.4c0-8.8,0-13.8-0.1-15c-0.1-0.8-0.3-1.3-0.6-1.6c-0.4-0.4-1.9-0.8-4.5-1.3
		C3.4,28.4,2.9,28.3,2.2,28.1z"/>
	<path fill="#005F3F" d="M47.7,34.1h1.5c2.1,5.4,4.7,11.6,7.8,18.4l5.5,11.9c0.3,0.4,0.5,0.7,0.8,0.9c0.2,0.1,1.4,0.5,3.4,1.1v1.4
		c-2.8-0.2-4.9-0.3-6.3-0.3c-1.4,0-3.7,0.1-7,0.3v-1.4c1.9-0.4,3-0.7,3.3-0.9s0.5-0.5,0.5-0.8c0-0.3-0.2-0.9-0.5-1.7l-2.4-5.7
		c-3.3,0-5.7,0-7.2,0l-6.4,0l-2.5,5.9c-0.4,1-0.6,1.5-0.6,1.8c0,0.2,0.1,0.4,0.3,0.5s1.1,0.4,2.7,0.7c0.2,0,0.4,0.1,0.7,0.2v1.4
		c-2.7-0.2-4.6-0.3-5.6-0.3c-1.4,0-3.2,0.1-5.3,0.3v-1.4c1.4-0.3,2.4-0.7,2.9-1.1c0.4-0.3,0.8-0.8,1.2-1.5c0.9-1.5,3.2-6.5,6.8-14.9
		L47.7,34.1z M41.5,55c2.2,0.1,3.7,0.1,4.7,0.1c0.3,0,2.7,0,7.2-0.1L47.4,41L41.5,55z"/>
	<path fill="#005F3F" d="M65.3,36v-1.4c3.8,0.2,6.4,0.3,7.8,0.3c0.8,0,3.5-0.1,8.1-0.3V36c-2.8,0.5-4.5,0.8-4.9,1
		c-0.3,0.1-0.6,0.3-0.8,0.5c-0.2,0.3-0.4,1-0.4,2s0,6.8,0,17.3c0,2.1,0,4.9,0.1,8.3h10.3c1.5,0,2.6-0.1,3-0.3s1-0.6,1.5-1.2
		c0.5-0.6,1.4-2.3,2.8-4.8h2l-1.9,5.2c-0.3,1-0.7,2.2-1.2,3.8c-6.5-0.2-12.1-0.3-16.9-0.3c-3.4,0-6.5,0.1-9.4,0.3v-1.4
		c2.4-0.4,3.8-0.7,4.2-0.9c0.4-0.2,0.7-0.4,0.9-0.7c0.1-0.3,0.2-1.1,0.2-2.5l0.1-14.4l-0.1-9.3c0-0.8-0.1-1.3-0.4-1.5
		c-0.4-0.3-1.5-0.6-3.5-1C66.5,36.3,66,36.2,65.3,36z"/>
	<path fill="#005F3F" d="M123.2,62.2l1,1.8c-2.5,1.6-4.9,2.7-7.2,3.5c-2.3,0.8-4.7,1.1-7.2,1.1c-3.1,0-6-0.7-8.5-2.1
		s-4.5-3.5-5.8-6.1s-2-5.5-2-8.7c0-5.2,1.7-9.5,5.1-12.8c3.4-3.3,7.9-5,13.5-5c3.4,0,7.3,0.7,11.5,2.1c0,1.4,0,2.4,0,3.1
		c0,2,0.1,4.1,0.4,6.3h-2c-0.6-2.7-1.2-4.6-1.8-5.6c-0.7-1-1.7-1.9-3.2-2.5s-3.3-0.9-5.4-0.9c-4.5,0-7.9,1.6-10.2,4.8
		c-1.8,2.5-2.7,5.7-2.7,9.5c0,4.5,1.3,8.1,3.8,10.7c2.5,2.6,5.8,3.9,9.8,3.9c1.7,0,3.4-0.2,5.1-0.7
		C118.8,64.2,120.8,63.4,123.2,62.2z"/>
	<path fill="#005F3F" d="M126,51.5c0-5.1,1.7-9.3,5-12.6s7.6-4.9,12.7-4.9c4.8,0,8.7,1.5,11.5,4.4s4.3,6.9,4.3,12
		c0,5.7-1.6,10.1-4.8,13.4c-3.2,3.3-7.5,4.9-12.7,4.9c-4.9,0-8.8-1.5-11.7-4.5C127.5,61.2,126,57,126,51.5z M131.2,50.8
		c0,5.2,1.1,9,3.4,11.6c2.3,2.6,5.1,3.9,8.6,3.9c2.3,0,4.3-0.6,6.1-1.8c1.8-1.2,3.1-3,4-5.3c0.9-2.3,1.4-4.9,1.4-7.7
		c0-3.5-0.6-6.5-1.7-8.8s-2.6-4-4.3-5s-3.6-1.5-5.7-1.5c-2.3,0-4.4,0.6-6.3,1.8s-3.2,3-4.1,5.3S131.2,48.2,131.2,50.8z"/>
	<path fill="#005F3F" d="M158.9,36v-1.4c2,0.2,3.5,0.3,4.7,0.3c0.9,0,2.6-0.1,4.9-0.3l6.7,8.3c0.6,0.7,5.3,6.4,14.1,17.1
		c0-2.2,0-3.8,0-4.8c0-2.3-0.1-6.6-0.2-12.8c-0.1-2.9-0.1-4.5-0.2-4.7s-0.3-0.5-0.5-0.7s-1.4-0.5-3.3-0.8c-0.3,0-0.6-0.1-1.1-0.3
		v-1.4c2.8,0.2,5,0.3,6.6,0.3c1.6,0,3.8-0.1,6.6-0.3V36c-0.4,0.1-0.7,0.2-0.9,0.2c-2.1,0.4-3.3,0.7-3.5,0.9
		c-0.2,0.1-0.3,0.2-0.4,0.4c-0.2,0.3-0.3,0.7-0.3,1.4c0,0.3-0.1,2.4-0.1,6.4s-0.1,7.8-0.1,11.5c0,4.4,0.1,8.1,0.2,11.1l-1.5,0.7
		l-9.8-12.1L168,41l0.1,13.9c0.1,6.1,0.2,9.3,0.3,9.7c0.1,0.3,0.2,0.5,0.4,0.7c0.3,0.3,1.5,0.6,3.5,1c0.2,0,0.6,0.1,1.1,0.2v1.4
		c-2.4-0.2-4.4-0.3-6-0.3c-1.4,0-3.8,0.1-7.2,0.3v-1.4c0.5-0.1,1-0.2,1.2-0.3c1.9-0.3,3-0.6,3.3-0.9c0.2-0.1,0.3-0.4,0.4-0.7
		c0.2-0.7,0.3-3.4,0.3-8.2c0.1-6.7,0.1-10.6,0.1-11.9c0-3.9-0.1-6.1-0.2-6.5c-0.1-0.3-0.3-0.6-0.6-0.8s-1.8-0.5-4.4-1
		C159.9,36.2,159.5,36.2,158.9,36z"/>
	<path fill="#005F3F" d="M206.7,49.3h5.7c2.2,0,3.5-0.1,3.9-0.2s0.7-0.4,0.9-0.7s0.5-1.4,0.9-3.1c0-0.2,0.1-0.4,0.2-0.8h1.5
		c-0.2,2.6-0.3,4.6-0.3,6c0,1.4,0.1,3.4,0.3,5.9h-1.5c-0.5-2.3-0.7-3.5-0.8-3.8c-0.2-0.4-0.4-0.6-0.8-0.8s-1.6-0.2-3.5-0.2h-6.4
		l0.1,13.8h9.8l0.9,0c1.3,0,2.2-0.1,2.5-0.2c0.6-0.2,1.1-0.5,1.6-1c0.5-0.5,1.3-1.8,2.5-4c0.1-0.2,0.3-0.5,0.6-1h1.6
		c-0.2,0.5-1.2,3.4-2.9,8.8c-5.7-0.2-10.9-0.3-15.6-0.3c-3.3,0-6.9,0.1-10.9,0.3v-1.4l3.8-0.8c0.6-0.2,1-0.3,1.1-0.5
		c0.2-0.3,0.4-0.9,0.4-1.9v-0.4l0.1-5.5c0-1.1,0-3.1,0-6.3c0-4.5,0-7.8,0-9.9s-0.1-3.3-0.2-3.6c-0.1-0.2-0.2-0.3-0.4-0.5
		s-0.9-0.3-2.2-0.6L197,36v-1.4c2.9,0.2,6.4,0.3,10.5,0.3c2.2,0,7.5-0.1,15.9-0.3c0,2.7,0.2,5.4,0.6,8h-1.6
		c-0.6-2.1-1.1-3.5-1.5-4.2c-0.3-0.5-0.6-0.8-1-1c-0.5-0.2-1.7-0.3-3.4-0.3H207l-0.2,7.5L206.7,49.3z"/>
	<path fill="#005F3F" d="M241.6,28.1v-1.7c4.8,0.2,8,0.3,9.7,0.3c1.1,0,4.4-0.1,10.1-0.3v1.7c-3.5,0.6-5.6,1-6.2,1.2
		c-0.4,0.1-0.7,0.4-0.9,0.6c-0.3,0.4-0.5,1.3-0.5,2.5s-0.1,8.5-0.1,21.7c0,2.6,0,6.1,0.1,10.4h12.9c1.9,0,3.2-0.1,3.8-0.4
		s1.2-0.8,1.8-1.6s1.8-2.8,3.5-6h2.5l-2.3,6.5c-0.4,1.2-0.9,2.8-1.5,4.8c-8.1-0.2-15.1-0.3-21.1-0.3c-4.2,0-8.2,0.1-11.8,0.3v-1.7
		c3-0.5,4.7-0.9,5.3-1.1c0.5-0.2,0.9-0.5,1.1-0.8c0.2-0.4,0.3-1.4,0.3-3.1l0.1-18l-0.1-11.6c0-1-0.1-1.6-0.4-1.9
		c-0.4-0.4-1.9-0.8-4.3-1.2C243.1,28.5,242.5,28.3,241.6,28.1z"/>
	<path fill="#005F3F" d="M292.5,34.6V36c-0.5,0.1-1,0.2-1.2,0.3c-2.1,0.4-3.3,0.7-3.6,1s-0.5,1-0.5,2.1v0.8l-0.1,9.4l0.1,13.7
		c0,1.1,0.2,1.8,0.5,2.1s1.4,0.6,3.3,0.8c0.4,0,0.9,0.1,1.6,0.3v1.4c-2.5-0.2-4.9-0.3-7.3-0.3c-2.4,0-5,0.1-7.9,0.3v-1.4
		c0.5-0.1,0.8-0.2,1-0.2c2.2-0.4,3.5-0.7,3.8-1s0.5-1.1,0.5-2.3l0-1.2l0.1-8.6c0-8.8,0-13.7-0.1-14.7c0-0.5-0.2-0.9-0.5-1.2
		c-0.3-0.3-1.5-0.6-3.5-1c-0.3-0.1-0.7-0.2-1.2-0.3v-1.4c3.4,0.2,6,0.3,8,0.3C287.3,34.9,289.8,34.8,292.5,34.6z"/>
	<path fill="#005F3F" d="M293.8,36v-1.4c2.9,0.2,5.5,0.3,7.9,0.3c1.6,0,3.2,0,4.9-0.1s3-0.1,4-0.1c3.2,0,5.6,0.7,7.1,2
		c1.5,1.4,2.3,3.1,2.3,5.2c0,1.2-0.3,2.4-0.9,3.6s-1.4,2.2-2.5,3c-0.8,0.6-2,1.1-3.6,1.6c1.7,0.1,3,0.4,3.9,0.7
		c1.4,0.6,2.5,1.4,3.3,2.6s1.2,2.6,1.2,4.3c0,3.5-1.6,6.2-4.9,8.2c-2.2,1.4-5.5,2.1-9.8,2.1c-1,0-2.5,0-4.6-0.2
		c-1.5-0.1-2.3-0.1-2.4-0.1c-0.3,0-2.3,0.1-6,0.3v-1.4c0.5-0.1,0.9-0.2,1.1-0.2c2.3-0.4,3.5-0.8,3.8-1c0.2-0.2,0.3-0.6,0.4-1.2
		c0.1-1.5,0.2-5.6,0.2-12.4l0-10.4c0-2.2-0.1-3.4-0.3-3.8c-0.1-0.2-0.3-0.3-0.5-0.5s-1.4-0.4-3.6-0.9
		C294.5,36.2,294.2,36.1,293.8,36z M303.5,49.4c1.4,0,2.2,0,2.3,0c2.6,0,4.6-0.2,5.8-0.7s2.2-1.2,3-2.3c0.8-1.1,1.1-2.4,1.1-3.8
		c0-2.1-0.7-3.6-2.2-4.7c-1.1-0.8-2.8-1.1-5.2-1.1c-1.4,0-2.9,0.1-4.5,0.4c-0.2,2.4-0.3,5.6-0.3,9.7
		C303.4,47.5,303.4,48.3,303.5,49.4z M303.5,65.4c1.7,0.3,3.2,0.4,4.5,0.4c3,0,5.2-0.7,6.6-2.1c1.5-1.4,2.2-3.3,2.2-5.6
		c0-1.7-0.4-3-1.2-4s-1.8-1.7-2.9-2.1s-3-0.5-5.5-0.5c-1.5,0-2.7,0-3.7,0V65.4z"/>
	<path fill="#005F3F" d="M321.6,36v-1.4c4.1,0.2,7.5,0.3,10,0.3c1.4,0,2.8,0,4,0c1.7-0.1,2.8-0.1,3.4-0.1c3,0,5.3,0.7,6.9,2.2
		c1.5,1.5,2.3,3.4,2.3,5.9c0,1.7-0.3,3.1-1,4.4c-0.7,1.3-1.7,2.3-3,3.2c-1,0.6-2.3,1.2-4.1,1.7l7.8,10.2c1,1.3,1.6,2,1.8,2.2
		c0.4,0.3,0.9,0.6,1.5,0.8c0.9,0.3,2.4,0.7,4.4,1.2v1.4c-2.5-0.2-4.3-0.3-5.4-0.3c-1.3,0-2.6,0.1-4,0.3c-0.7-1.2-1.7-2.6-2.9-4.4
		c-1.2-1.8-1.9-2.8-2.2-3.2c-0.2-0.2-0.3-0.4-0.4-0.6l-5.2-7.1c-1.4,0-2.8-0.1-4.2-0.3l0.2,11.8c0,0.5,0.2,0.8,0.4,1.1
		c0.4,0.3,1.5,0.6,3.5,1c0.3,0,0.7,0.1,1.3,0.3v1.4c-2.8-0.2-5.3-0.3-7.5-0.3c-2.3,0-4.9,0.1-7.8,0.3v-1.4l1-0.2
		c2.2-0.4,3.5-0.8,3.8-1s0.5-0.8,0.5-1.5c0-0.5,0.1-4.5,0.1-12l-0.1-11c0-1.7-0.1-2.7-0.1-2.9s-0.2-0.4-0.5-0.6
		c-0.8-0.4-2-0.7-3.6-1C322.5,36.2,322.2,36.1,321.6,36z M331.5,50.4c1.6,0.2,2.9,0.3,3.8,0.3c2.8,0,4.9-0.6,6.3-1.9
		c1.4-1.3,2.1-3,2.1-5.3c0-2-0.6-3.5-1.8-4.7s-3-1.7-5.3-1.7c-0.8,0-2.5,0.1-4.9,0.3L331.5,50.4z"/>
	<path fill="#005F3F" d="M367.1,34.1h1.5c2.1,5.4,4.7,11.6,7.8,18.4l5.5,11.9c0.3,0.4,0.5,0.7,0.8,0.9c0.2,0.1,1.4,0.5,3.4,1.1v1.4
		c-2.8-0.2-4.9-0.3-6.3-0.3c-1.4,0-3.7,0.1-7,0.3v-1.4c1.9-0.4,3-0.7,3.3-0.9s0.5-0.5,0.5-0.8c0-0.3-0.2-0.9-0.5-1.7l-2.4-5.7
		c-3.3,0-5.7,0-7.2,0l-6.4,0l-2.5,5.9c-0.4,1-0.6,1.5-0.6,1.8c0,0.2,0.1,0.4,0.3,0.5s1.1,0.4,2.7,0.7c0.2,0,0.4,0.1,0.7,0.2v1.4
		c-2.7-0.2-4.6-0.3-5.6-0.3c-1.4,0-3.2,0.1-5.3,0.3v-1.4c1.4-0.3,2.4-0.7,2.9-1.1c0.4-0.3,0.8-0.8,1.2-1.5c0.9-1.5,3.2-6.5,6.8-14.9
		L367.1,34.1z M360.9,55c2.2,0.1,3.7,0.1,4.7,0.1c0.3,0,2.7,0,7.2-0.1L366.8,41L360.9,55z"/>
	<path fill="#005F3F" d="M383.6,36v-1.4c4.1,0.2,7.5,0.3,10,0.3c1.4,0,2.8,0,4,0c1.7-0.1,2.8-0.1,3.4-0.1c3,0,5.3,0.7,6.9,2.2
		c1.5,1.5,2.3,3.4,2.3,5.9c0,1.7-0.3,3.1-1,4.4c-0.7,1.3-1.7,2.3-3,3.2c-1,0.6-2.3,1.2-4.1,1.7l7.8,10.2c1,1.3,1.6,2,1.8,2.2
		c0.4,0.3,0.9,0.6,1.5,0.8c0.9,0.3,2.4,0.7,4.4,1.2v1.4c-2.5-0.2-4.3-0.3-5.4-0.3c-1.3,0-2.6,0.1-4,0.3c-0.7-1.2-1.7-2.6-2.9-4.4
		c-1.2-1.8-1.9-2.8-2.2-3.2c-0.2-0.2-0.3-0.4-0.4-0.6l-5.2-7.1c-1.4,0-2.8-0.1-4.2-0.3l0.2,11.8c0,0.5,0.2,0.8,0.4,1.1
		c0.4,0.3,1.5,0.6,3.5,1c0.3,0,0.7,0.1,1.3,0.3v1.4c-2.8-0.2-5.3-0.3-7.5-0.3c-2.3,0-4.9,0.1-7.8,0.3v-1.4l1-0.2
		c2.2-0.4,3.5-0.8,3.8-1s0.5-0.8,0.5-1.5c0-0.5,0.1-4.5,0.1-12l-0.1-11c0-1.7-0.1-2.7-0.1-2.9s-0.2-0.4-0.5-0.6
		c-0.8-0.4-2-0.7-3.6-1C384.5,36.2,384.1,36.1,383.6,36z M393.4,50.4c1.6,0.2,2.9,0.3,3.8,0.3c2.8,0,4.9-0.6,6.3-1.9
		c1.4-1.3,2.1-3,2.1-5.3c0-2-0.6-3.5-1.8-4.7s-3-1.7-5.3-1.7c-0.8,0-2.5,0.1-4.9,0.3L393.4,50.4z"/>
	<path fill="#005F3F" d="M420.3,67.9v-1.4c0.5-0.1,1-0.2,1.2-0.2c1.9-0.3,3.1-0.6,3.5-0.9c0.2-0.2,0.4-0.7,0.5-1.4
		c0.1-0.8,0.2-3,0.2-6.6l0-3.1c-1.3-2.1-3.5-5.4-6.5-9.9l-4.3-6.2c-0.3-0.4-0.7-0.7-1.1-0.9c-0.7-0.4-1.9-0.8-3.5-1.2v-1.4
		c2.5,0.2,4.7,0.3,6.6,0.3c1.9,0,4.2-0.1,6.9-0.3V36c-1.8,0.5-2.8,0.8-3.1,1s-0.4,0.4-0.4,0.6c0,0.2,0.1,0.5,0.4,1
		c1.4,2.4,4.1,6.7,8,12.7c2-3.1,4.5-7.4,7.7-12.8c0.3-0.5,0.5-0.9,0.5-1.1c0-0.2-0.1-0.4-0.3-0.5c-0.5-0.3-1.6-0.6-3.3-0.9v-1.4
		c2.9,0.2,4.9,0.3,6.2,0.3c1.6,0,3.5-0.1,5.8-0.3V36c-1.9,0.4-3.3,0.8-4.1,1.3s-1.7,1.6-2.8,3.2c-2.4,3.5-5.2,7.9-8.5,13.1
		c0,0.8,0,1.2,0,1.4c0,5.4,0,8.4,0.1,9c0.1,0.6,0.2,1,0.5,1.2c0.4,0.3,1.8,0.7,3.9,1.1c0.2,0,0.5,0.1,0.8,0.2v1.4
		c-2.9-0.2-5.3-0.3-7.1-0.3C426.9,67.6,424.2,67.7,420.3,67.9z"/>
</g>
<g>
	<path fill="#005F3F" d="M2,1.8V0.9C3.3,1,4.4,1,5.1,1C5.7,1,6.8,1,8.4,0.9l4.4,5.5c0.4,0.5,3.5,4.3,9.4,11.4c0-1.5,0-2.5,0-3.2
		c0-1.6,0-4.4-0.1-8.5c0-1.9-0.1-3-0.1-3.1c-0.1-0.2-0.2-0.3-0.4-0.5c-0.2-0.1-0.9-0.3-2.2-0.6c-0.2,0-0.4-0.1-0.7-0.2V0.9
		C20.6,1,22,1,23.1,1c1.1,0,2.5-0.1,4.4-0.2v0.9c-0.3,0.1-0.5,0.1-0.6,0.1c-1.4,0.3-2.2,0.5-2.3,0.6c-0.1,0.1-0.2,0.2-0.3,0.3
		c-0.1,0.2-0.2,0.5-0.2,0.9c0,0.2,0,1.6-0.1,4.3c0,2.6-0.1,5.2-0.1,7.7c0,2.9,0.1,5.4,0.2,7.4l-1,0.5l-6.5-8.1L8,5.1l0.1,9.2
		c0.1,4,0.1,6.2,0.2,6.5c0,0.2,0.1,0.3,0.3,0.5c0.2,0.2,1,0.4,2.3,0.7c0.2,0,0.4,0.1,0.7,0.1V23c-1.6-0.1-2.9-0.2-4-0.2
		c-0.9,0-2.5,0.1-4.8,0.2v-0.9C3.1,22,3.4,22,3.6,21.9c1.3-0.2,2-0.4,2.2-0.6C5.9,21.2,6,21.1,6,20.8c0.1-0.5,0.2-2.3,0.2-5.4
		c0.1-4.5,0.1-7.1,0.1-7.9c0-2.6,0-4.1-0.1-4.4c0-0.2-0.2-0.4-0.4-0.5C5.6,2.5,4.6,2.2,2.8,2C2.7,1.9,2.4,1.9,2,1.8z"/>
	<path fill="#005F3F" d="M26.7,13.8c0-2.9,0.9-5.2,2.8-7.1c1.9-1.9,4.2-2.8,7.2-2.8c2.7,0,4.9,0.8,6.5,2.5s2.4,3.9,2.4,6.8
		c0,3.2-0.9,5.7-2.7,7.5c-1.8,1.8-4.2,2.8-7.1,2.8c-2.8,0-5-0.8-6.6-2.5S26.7,16.8,26.7,13.8z M29.6,13.4c0,2.9,0.6,5.1,1.9,6.5
		c1.3,1.5,2.9,2.2,4.8,2.2c1.3,0,2.4-0.3,3.4-1s1.7-1.7,2.3-3s0.8-2.8,0.8-4.3c0-2-0.3-3.6-1-4.9S40.3,6.6,39.4,6s-2-0.9-3.2-0.9
		c-1.3,0-2.5,0.3-3.5,1s-1.8,1.7-2.3,3C29.9,10.5,29.6,11.9,29.6,13.4z"/>
	<path fill="#005F3F" d="M45.7,5.1V4.3c2.3,0.1,4.2,0.1,5.6,0.1c0.8,0,1.6,0,2.3,0c0.9,0,1.6-0.1,1.9-0.1c1.7,0,3,0.4,3.9,1.2
		c0.9,0.8,1.3,1.9,1.3,3.3c0,0.9-0.2,1.8-0.6,2.5c-0.4,0.7-1,1.3-1.7,1.8c-0.5,0.4-1.3,0.7-2.3,0.9l4.4,5.7c0.5,0.7,0.9,1.1,1,1.3
		c0.2,0.2,0.5,0.3,0.9,0.5c0.5,0.2,1.3,0.4,2.5,0.7V23c-1.4-0.1-2.4-0.1-3-0.1c-0.7,0-1.5,0-2.2,0.1c-0.4-0.7-0.9-1.5-1.6-2.5
		s-1.1-1.6-1.2-1.8c-0.1-0.1-0.2-0.2-0.3-0.3l-2.9-4c-0.8,0-1.6-0.1-2.4-0.2l0.1,6.6c0,0.3,0.1,0.5,0.2,0.6c0.2,0.2,0.9,0.4,2,0.6
		c0.2,0,0.4,0.1,0.7,0.2V23c-1.6-0.1-3-0.1-4.2-0.1c-1.3,0-2.8,0-4.4,0.1v-0.8l0.6-0.1c1.3-0.2,2-0.4,2.1-0.6
		c0.2-0.2,0.3-0.4,0.3-0.8c0-0.3,0-2.5,0.1-6.8l-0.1-6.2c0-0.9,0-1.5-0.1-1.6c0-0.1-0.1-0.2-0.3-0.3c-0.4-0.2-1.1-0.4-2-0.6
		C46.2,5.2,46,5.1,45.7,5.1z M51.3,13.1c0.9,0.1,1.6,0.1,2.1,0.1c1.6,0,2.8-0.4,3.6-1.1c0.8-0.7,1.2-1.7,1.2-3c0-1.1-0.3-2-1-2.6
		c-0.7-0.6-1.7-1-3-1c-0.5,0-1.4,0.1-2.8,0.2L51.3,13.1z"/>
	<path fill="#005F3F" d="M70.1,12.5h3.2c1.2,0,2,0,2.2-0.1c0.2-0.1,0.4-0.2,0.5-0.4s0.3-0.8,0.5-1.8c0-0.1,0.1-0.2,0.1-0.4h0.9
		c-0.1,1.5-0.1,2.6-0.1,3.3c0,0.8,0,1.9,0.1,3.3h-0.9c-0.3-1.3-0.4-2-0.5-2.1c-0.1-0.2-0.2-0.4-0.5-0.5c-0.2-0.1-0.9-0.1-2-0.1h-3.6
		l0.1,7.8h5.5l0.5,0c0.8,0,1.2,0,1.4-0.1c0.3-0.1,0.6-0.3,0.9-0.6s0.7-1,1.4-2.3c0.1-0.1,0.2-0.3,0.3-0.5h0.9
		c-0.1,0.3-0.7,1.9-1.6,5c-3.2-0.1-6.1-0.1-8.8-0.1c-1.8,0-3.9,0-6.1,0.1v-0.8l2.1-0.5c0.3-0.1,0.6-0.2,0.6-0.3
		c0.1-0.2,0.2-0.5,0.2-1v-0.2l0.1-3.1c0-0.6,0-1.8,0-3.5c0-2.5,0-4.4,0-5.6s-0.1-1.9-0.1-2c-0.1-0.1-0.1-0.2-0.2-0.3
		c-0.1-0.1-0.5-0.2-1.2-0.3l-1.4-0.3V4.3c1.7,0.1,3.6,0.1,5.9,0.1c1.3,0,4.2,0,9-0.1c0,1.5,0.1,3,0.3,4.5h-0.9
		c-0.4-1.2-0.6-2-0.9-2.4c-0.1-0.3-0.3-0.5-0.6-0.5c-0.3-0.1-0.9-0.2-1.9-0.2h-5.3L70.1,10L70.1,12.5z"/>
	<path fill="#005F3F" d="M87.6,12.5h3.2c1.2,0,2,0,2.2-0.1c0.2-0.1,0.4-0.2,0.5-0.4s0.3-0.8,0.5-1.8c0-0.1,0.1-0.2,0.1-0.4H95
		c-0.1,1.5-0.1,2.6-0.1,3.3c0,0.8,0,1.9,0.1,3.3h-0.9c-0.3-1.3-0.4-2-0.5-2.1c-0.1-0.2-0.2-0.4-0.5-0.5c-0.2-0.1-0.9-0.1-2-0.1h-3.6
		l0.1,7.8h5.5l0.5,0c0.8,0,1.2,0,1.4-0.1c0.3-0.1,0.6-0.3,0.9-0.6s0.7-1,1.4-2.3c0.1-0.1,0.2-0.3,0.3-0.5h0.9C98.5,18.3,98,20,97,23
		c-3.2-0.1-6.1-0.1-8.8-0.1c-1.8,0-3.9,0-6.1,0.1v-0.8l2.1-0.5c0.3-0.1,0.6-0.2,0.6-0.3c0.1-0.2,0.2-0.5,0.2-1v-0.2l0.1-3.1
		c0-0.6,0-1.8,0-3.5c0-2.5,0-4.4,0-5.6S85.1,6.1,85,6c-0.1-0.1-0.1-0.2-0.2-0.3c-0.1-0.1-0.5-0.2-1.2-0.3l-1.4-0.3V4.3
		c1.7,0.1,3.6,0.1,5.9,0.1c1.3,0,4.2,0,9-0.1c0,1.5,0.1,3,0.3,4.5h-0.9c-0.4-1.2-0.6-2-0.9-2.4C95.4,6.1,95.2,6,95,5.9
		C94.7,5.8,94,5.7,93,5.7h-5.3L87.6,10L87.6,12.5z"/>
	<path fill="#005F3F" d="M99,5.1V4.3c1.1,0.1,2,0.1,2.6,0.1c0.5,0,1.4,0,2.8-0.1l3.7,4.7c0.3,0.4,3,3.6,7.9,9.6c0-1.2,0-2.1,0-2.7
		c0-1.3,0-3.7-0.1-7.2c0-1.6-0.1-2.5-0.1-2.6c0-0.1-0.1-0.3-0.3-0.4s-0.8-0.3-1.8-0.5c-0.1,0-0.3-0.1-0.6-0.1V4.3
		c1.6,0.1,2.8,0.1,3.7,0.1c0.9,0,2.1,0,3.7-0.1v0.8c-0.2,0.1-0.4,0.1-0.5,0.1c-1.2,0.2-1.8,0.4-2,0.5c-0.1,0.1-0.2,0.1-0.2,0.2
		c-0.1,0.1-0.1,0.4-0.2,0.8c0,0.2,0,1.4-0.1,3.6c0,2.2,0,4.4,0,6.5c0,2.5,0,4.5,0.1,6.2l-0.9,0.4l-5.5-6.8l-7.2-8.7l0.1,7.8
		c0,3.4,0.1,5.2,0.1,5.5c0,0.2,0.1,0.3,0.2,0.4c0.2,0.2,0.8,0.4,2,0.6c0.1,0,0.3,0.1,0.6,0.1V23c-1.3-0.1-2.5-0.1-3.4-0.1
		c-0.8,0-2.1,0-4,0.1v-0.8c0.3-0.1,0.5-0.1,0.7-0.2c1.1-0.2,1.7-0.4,1.8-0.5c0.1-0.1,0.2-0.2,0.2-0.4c0.1-0.4,0.1-1.9,0.2-4.6
		c0-3.8,0.1-6,0.1-6.7c0-2.2,0-3.4-0.1-3.7c0-0.2-0.1-0.3-0.3-0.4c-0.2-0.1-1-0.3-2.5-0.5C99.6,5.2,99.4,5.1,99,5.1z"/>
	<path fill="#005F3F" d="M127.4,1.8V0.9c2.8,0.1,5,0.2,6.6,0.2c1,0,1.9,0,2.7,0c1.1,0,1.9-0.1,2.3-0.1c2,0,3.6,0.5,4.6,1.4
		c1,1,1.5,2.3,1.5,3.9c0,1.1-0.2,2.1-0.7,2.9c-0.5,0.8-1.1,1.6-2,2.1c-0.6,0.4-1.5,0.8-2.7,1.1l5.2,6.8c0.6,0.8,1.1,1.3,1.2,1.5
		c0.3,0.2,0.6,0.4,1,0.6c0.6,0.2,1.6,0.5,3,0.8V23c-1.6-0.1-2.8-0.2-3.6-0.2c-0.9,0-1.8,0.1-2.7,0.2c-0.5-0.8-1.1-1.8-1.9-2.9
		c-0.8-1.2-1.3-1.9-1.5-2.1c-0.1-0.1-0.2-0.3-0.3-0.4l-3.4-4.7c-0.9,0-1.9-0.1-2.8-0.2l0.1,7.9c0,0.3,0.1,0.5,0.3,0.7
		c0.3,0.2,1,0.4,2.3,0.7c0.2,0,0.5,0.1,0.9,0.2V23c-1.9-0.1-3.5-0.2-5-0.2c-1.5,0-3.3,0.1-5.2,0.2v-0.9l0.7-0.1
		c1.5-0.3,2.3-0.5,2.5-0.7c0.2-0.2,0.3-0.5,0.4-1c0-0.3,0-3,0.1-8L131,4.9c0-1.1,0-1.8-0.1-1.9c0-0.2-0.1-0.3-0.3-0.4
		c-0.5-0.3-1.3-0.5-2.4-0.7C128,1.9,127.7,1.9,127.4,1.8z M133.9,11.3c1.1,0.1,1.9,0.2,2.5,0.2c1.9,0,3.3-0.4,4.2-1.3
		c0.9-0.8,1.4-2,1.4-3.5c0-1.3-0.4-2.4-1.2-3.1c-0.8-0.8-2-1.1-3.5-1.1c-0.6,0-1.6,0.1-3.3,0.2L133.9,11.3z"/>
	<path fill="#005F3F" d="M153.9,12.5h3.2c1.2,0,2,0,2.2-0.1c0.2-0.1,0.4-0.2,0.5-0.4s0.3-0.8,0.5-1.8c0-0.1,0.1-0.2,0.1-0.4h0.9
		c-0.1,1.5-0.1,2.6-0.1,3.3c0,0.8,0,1.9,0.1,3.3h-0.9c-0.3-1.3-0.4-2-0.5-2.1c-0.1-0.2-0.2-0.4-0.5-0.5c-0.2-0.1-0.9-0.1-2-0.1h-3.6
		l0.1,7.8h5.5l0.5,0c0.8,0,1.2,0,1.4-0.1c0.3-0.1,0.6-0.3,0.9-0.6s0.7-1,1.4-2.3c0.1-0.1,0.2-0.3,0.3-0.5h0.9
		c-0.1,0.3-0.7,1.9-1.6,5c-3.2-0.1-6.1-0.1-8.8-0.1c-1.8,0-3.9,0-6.1,0.1v-0.8l2.1-0.5c0.3-0.1,0.6-0.2,0.6-0.3
		c0.1-0.2,0.2-0.5,0.2-1v-0.2l0.1-3.1c0-0.6,0-1.8,0-3.5c0-2.5,0-4.4,0-5.6s-0.1-1.9-0.1-2c-0.1-0.1-0.1-0.2-0.2-0.3
		c-0.1-0.1-0.5-0.2-1.2-0.3l-1.4-0.3V4.3c1.7,0.1,3.6,0.1,5.9,0.1c1.3,0,4.2,0,9-0.1c0,1.5,0.1,3,0.3,4.5h-0.9
		c-0.4-1.2-0.6-2-0.9-2.4c-0.1-0.3-0.3-0.5-0.6-0.5c-0.3-0.1-0.9-0.2-1.9-0.2H154l-0.1,4.2L153.9,12.5z"/>
	<path fill="#005F3F" d="M174.2,4h0.8c1.2,3,2.6,6.5,4.4,10.4l3.1,6.7c0.1,0.2,0.3,0.4,0.5,0.5c0.1,0.1,0.8,0.3,1.9,0.6V23
		c-1.6-0.1-2.8-0.1-3.5-0.1c-0.8,0-2.1,0-4,0.1v-0.8c1.1-0.2,1.7-0.4,1.9-0.5s0.3-0.3,0.3-0.5c0-0.2-0.1-0.5-0.3-0.9l-1.3-3.2
		c-1.9,0-3.2,0-4.1,0l-3.6,0l-1.4,3.3c-0.2,0.5-0.3,0.9-0.3,1c0,0.1,0.1,0.2,0.2,0.3s0.6,0.2,1.5,0.4c0.1,0,0.2,0.1,0.4,0.1V23
		c-1.5-0.1-2.6-0.1-3.2-0.1c-0.8,0-1.8,0-3,0.1v-0.8c0.8-0.2,1.3-0.4,1.6-0.6c0.2-0.2,0.4-0.4,0.7-0.8c0.5-0.9,1.8-3.7,3.8-8.4
		L174.2,4z M170.7,15.8c1.2,0,2.1,0.1,2.6,0.1c0.2,0,1.5,0,4-0.1L174,7.9L170.7,15.8z"/>
	<path fill="#005F3F" d="M184.6,5.1V4.3c2.2,0.1,3.6,0.1,4.4,0.1c0.5,0,2,0,4.5-0.1v0.8c-1.6,0.3-2.5,0.5-2.8,0.5
		c-0.2,0.1-0.3,0.2-0.4,0.3c-0.1,0.2-0.2,0.6-0.2,1.1s0,3.8,0,9.8c0,1.2,0,2.7,0,4.7h5.8c0.9,0,1.4-0.1,1.7-0.2s0.5-0.3,0.8-0.7
		s0.8-1.3,1.6-2.7h1.1l-1.1,2.9c-0.2,0.5-0.4,1.3-0.7,2.1c-3.6-0.1-6.8-0.1-9.5-0.1c-1.9,0-3.7,0-5.3,0.1v-0.8
		c1.3-0.2,2.1-0.4,2.4-0.5c0.2-0.1,0.4-0.2,0.5-0.4c0.1-0.2,0.1-0.6,0.1-1.4l0.1-8.1l0-5.2c0-0.4-0.1-0.7-0.2-0.8
		c-0.2-0.2-0.9-0.4-2-0.6C185.3,5.2,185,5.2,184.6,5.1z"/>
	<path fill="#005F3F" d="M206.1,12.5h3.2c1.2,0,2,0,2.2-0.1c0.2-0.1,0.4-0.2,0.5-0.4s0.3-0.8,0.5-1.8c0-0.1,0.1-0.2,0.1-0.4h0.9
		c-0.1,1.5-0.1,2.6-0.1,3.3c0,0.8,0,1.9,0.1,3.3h-0.9c-0.3-1.3-0.4-2-0.5-2.1c-0.1-0.2-0.2-0.4-0.5-0.5c-0.2-0.1-0.9-0.1-2-0.1h-3.6
		l0.1,7.8h5.5l0.5,0c0.8,0,1.2,0,1.4-0.1c0.3-0.1,0.6-0.3,0.9-0.6s0.7-1,1.4-2.3c0.1-0.1,0.2-0.3,0.3-0.5h0.9
		c-0.1,0.3-0.7,1.9-1.6,5c-3.2-0.1-6.1-0.1-8.8-0.1c-1.8,0-3.9,0-6.1,0.1v-0.8l2.1-0.5c0.3-0.1,0.6-0.2,0.6-0.3
		c0.1-0.2,0.2-0.5,0.2-1v-0.2l0.1-3.1c0-0.6,0-1.8,0-3.5c0-2.5,0-4.4,0-5.6s-0.1-1.9-0.1-2c-0.1-0.1-0.1-0.2-0.2-0.3
		c-0.1-0.1-0.5-0.2-1.2-0.3l-1.4-0.3V4.3c1.7,0.1,3.6,0.1,5.9,0.1c1.3,0,4.2,0,9-0.1c0,1.5,0.1,3,0.3,4.5h-0.9
		c-0.4-1.2-0.6-2-0.9-2.4c-0.1-0.3-0.3-0.5-0.6-0.5c-0.3-0.1-0.9-0.2-1.9-0.2h-5.3l-0.1,4.2L206.1,12.5z"/>
</g>
</svg>
